# Alias OBJ Model File
# Exported from SketchUp, (c) 2000-2012 Trimble Navigation Limited
# File units = meters

mtllib Cube.mtl

g Mesh1 Model

usemtl FrontColor
v 1.25 0 -1.25
vt -49.2126 49.2126
vn 0 -1 -0
v 0 0 -0
vt 0 0
v 0 0 -1.25
vt 0 49.2126
f 1/1/1 2/2/1 3/3/1

v 1.25 0 -0
vt -49.2126 0
f 2/2/1 1/1/1 4/4/1

usemtl _1
vt 0.5 0
vn 1 0 -0
v 1.25 1 -0
vt 0 0.50068
f 1/5/2 5/6/2 4/2/2

v 1.25 1 -1.25
vt 0.5 0.50068
f 5/6/2 1/5/2 6/7/2

usemtl FrontColor
vn 0 0 -1
v 0 1 -1.25
vt 0 39.3701
vt -49.2126 39.3701
f 1/4/3 7/8/3 6/9/3

f 7/8/3 1/4/3 3/2/3

vn -1 0 -0
f 2/2/4 7/9/4 3/4/4

v 0 1 -0
f 7/9/4 2/2/4 8/8/4

usemtl Color_A05
vn 0 0 1
vt 49.2126 39.3701
f 2/2/5 5/10/5 8/8/5

vt 49.2126 0
f 5/10/5 2/2/5 4/11/5

usemtl Carrera_Marble
vt 1.36702 0
vn 0 1 -0
vt 0 1.36702
f 5/12/6 7/13/6 8/2/6

vt 1.36702 1.36702
f 7/13/6 5/12/6 6/14/6

