# Alias OBJ Model File
# Exported from SketchUp, (c) 2000-2012 Trimble Navigation Limited.
# File units = meters

mtllib SpaceStationBarGrillBase.mtl

g Mesh1 Group1 Model

usemtl PurpleHexGrid
v -10 0 -17.3205
vt 1 3.07891
vn 6.54102e-19 -1 -3.77646e-19
v -15.25 0 8.22724
vt 1.525 -1.46248
v -20 0 -0
vt 2 0
f 1/1/1 2/2/1 3/3/1

v -14.8366 -6.93883e-17 9.14327
vt 1.48366 -1.62532
f 2/2/1 1/1/1 4/4/1

v -14.75 0 9.09327
vt 1.475 -1.61643
f 4/4/1 1/1/1 5/5/1

v -10 0 17.3205
vt 1 -3.07891
f 5/5/1 1/1/1 6/6/1

v 10 0 -17.3205
vt -1 3.07891
f 6/6/1 1/1/1 7/7/1

vn 4.73547e-19 -1 -2.73402e-19
v 10.0577 0 -17.4205
vt -1.00577 3.09669
f 1/1/2 8/8/2 7/7/2

v -10.0577 0 -17.4205
vt 1.00577 3.09669
f 1/1/2 9/9/2 8/8/2

f 3/3/2 9/9/2 1/1/2

v -20.1155 0 -0
vt 2.01155 0
f 9/9/2 3/3/2 10/10/2

v -15.3366 -6.93883e-17 8.27724
vt 1.53366 -1.47137
f 3/3/2 11/11/2 10/10/2

f 11/11/2 3/3/2 2/2/2

f 4/4/1 11/11/1 2/2/1

v 20 0 -0
vt -2 0
f 7/7/2 8/8/2 12/12/2

v 20.1155 0 -0
vt -2.01155 0
f 12/12/2 8/8/2 13/13/2

v 10.0577 0 17.4205
vt -1.00577 -3.09669
f 14/14/2 12/12/2 13/13/2

v 10 0 17.3205
vt -1 -3.07891
f 14/14/2 15/15/2 12/12/2

f 14/14/2 6/6/2 15/15/2

v -10.0577 0 17.4205
vt 1.00577 -3.09669
f 16/16/2 6/6/2 14/14/2

f 16/16/2 5/5/2 6/6/2

f 5/5/2 16/16/2 4/4/2

f 6/6/1 7/7/1 15/15/1

f 15/15/1 7/7/1 12/12/1

g Mesh2 Group1 Model

l 8 9

l 13 8

l 14 13

l 16 14

l 4 16

l 5 4

l 6 5

l 6 15

l 15 12

l 12 7

l 7 1

l 1 3

l 2 3

l 2 11

l 11 4

l 10 11

l 9 10

g Mesh3 Group2 Model

usemtl blueshade
vt 1.00577 0
vn 0.866025 0 -0.5
v 20.1155 2.66 -0
vt -1.00577 0.773818
vt -1.00577 0
f 8/17/3 17/18/3 13/19/3

v 10.0577 2.66 -17.4205
vt 1.00577 0.773818
f 17/18/3 8/17/3 18/20/3

vn 2.87107e-16 0 -1
v -10.0577 2.66 -17.4205
f 8/19/4 19/20/4 18/18/4

f 19/20/4 8/19/4 9/17/4

vn -0.866025 0 -0.5
f 10/17/5 19/18/5 9/19/5

v -20.1155 2.66 -0
f 19/18/5 10/17/5 20/20/5

vt -1.00577 1.72227e-15
vn -0.866025 -3.39848e-16 0.5
v -19.8366 1 0.483013
vt -0.95 0.290909
f 10/21/6 21/22/6 20/18/6

v -15.5866 1 7.84423
vt -0.1 0.290909
f 10/21/6 22/23/6 21/22/6

vt -0.05 1.70209e-15
f 11/24/6 22/23/6 10/21/6

v -15.5866 2 7.84423
vt -0.1 0.581818
f 22/23/6 11/24/6 23/25/6

v -15.3366 2.33 8.27724
vt -0.05 0.677818
f 24/26/6 23/25/6 11/24/6

f 24/26/6 20/18/6 23/25/6

v -14.8366 2.33 9.14327
vt 0.05 0.677818
f 25/27/6 20/18/6 24/26/6

v -10.0577 2.66 17.4205
f 25/27/6 26/20/6 20/18/6

v -10.3366 2 16.9375
vt 0.95 0.581818
f 27/28/6 26/20/6 25/27/6

vt 1.00577 1.72227e-15
f 26/20/6 27/28/6 16/29/6

v -10.3366 1 16.9375
vt 0.95 0.290909
f 28/30/6 16/29/6 27/28/6

vt 0.05 1.70209e-15
f 16/29/6 28/30/6 4/31/6

v -14.5866 1 9.57628
vt 0.1 0.290909
f 4/31/6 28/30/6 29/32/6

f 4/31/6 29/32/6 25/27/6

v -14.5866 2 9.57628
vt 0.1 0.581818
f 30/33/6 25/27/6 29/32/6

f 27/28/6 25/27/6 30/33/6

vn 5.74214e-16 0 1
v 10.0577 2.66 17.4205
f 16/19/7 31/20/7 26/18/7

f 31/20/7 16/19/7 14/17/7

vn 0.866025 0 0.5
f 13/17/8 31/18/8 14/19/8

f 31/18/8 13/17/8 17/20/8

v -19.8366 2 0.483013
vt -0.95 0.581818
f 23/25/6 20/18/6 32/34/6

f 32/34/6 20/18/6 21/22/6

g Mesh4 Group2 Model

l 20 26

l 19 20

l 18 19

l 8 18

l 8 9

l 13 8

l 14 13

l 16 14

l 16 26

l 4 16

l 4 25

l 25 24

l 24 11

l 10 11

l 9 10

l 9 19

l 10 20

l 26 31

l 31 17

l 14 31

l 17 18

l 13 17

g Mesh5 Group2 Model

l 32 21

l 23 32

l 22 23

l 21 22

g Mesh6 Group2 Model

l 29 30

l 28 29

l 27 28

l 30 27

g Mesh7 Group3 Model

usemtl Matrix
v 20 2.66 -0
vt -5 2.36444
vt 5 0
v 10 2.66 17.3205
vt 5 2.36444
f 33/35/5 15/36/5 34/37/5

v 20 0 -0
vt -5 0
f 15/36/5 33/35/5 35/38/5

v 10 2.66 -17.3205
vn -0.866025 0 0.5
f 36/35/9 35/36/9 33/37/9

v 10 0 -17.3205
f 35/36/9 36/35/9 37/38/9

vn -2.88765e-16 0 1
f 36/37/10 1/38/10 37/36/10

v -10 2.66 -17.3205
f 1/38/10 36/37/10 38/35/10

v -20 2.66 -0
f 39/35/8 1/36/8 38/37/8

f 1/36/8 39/35/8 3/38/8

vn 0.866025 1.61847e-16 -0.5
v -19.75 2 0.433013
vt 4.75 1.77778
vt 5 2.4918e-15
f 39/37/11 40/39/11 3/40/11

v -15.5 2 7.79423
vt 0.5 1.77778
f 39/37/11 41/41/11 40/39/11

v -15.25 2.33 8.22724
vt 0.25 2.07111
f 39/37/11 42/42/11 41/41/11

v -14.75 2.33 9.09327
vt -0.25 2.07111
f 39/37/11 43/43/11 42/42/11

v -10 2.66 17.3205
f 44/35/11 43/43/11 39/37/11

v -10.25 2 16.8875
vt -4.75 1.77778
f 43/43/11 44/35/11 45/44/11

v -10.25 1 16.8875
vt -4.75 0.888889
f 45/44/11 44/35/11 46/45/11

vt -5 2.4918e-15
f 6/46/11 46/45/11 44/35/11

vt -0.25 2.4918e-15
f 46/45/11 6/46/11 5/47/11

v -14.5 1 9.52628
vt -0.5 0.888889
f 46/45/11 5/47/11 47/48/11

v -14.5 2 9.52628
vt -0.5 1.77778
f 47/48/11 5/47/11 48/49/11

f 48/49/11 5/47/11 43/43/11

f 43/43/11 45/44/11 48/49/11

vn -5.77529e-16 0 -1
f 44/37/12 15/38/12 6/36/12

f 15/38/12 44/37/12 34/35/12

v -15.5 1 7.79423
vt 0.5 0.888889
f 41/41/11 42/42/11 49/50/11

vt 0.25 2.4918e-15
f 2/51/11 49/50/11 42/42/11

f 49/50/11 2/51/11 3/40/11

v -19.75 1 0.433013
vt 4.75 0.888889
f 49/50/11 3/40/11 50/52/11

f 50/52/11 3/40/11 40/39/11

g Mesh8 Group3 Model

l 33 36

l 35 33

l 35 37

l 15 35

l 6 15

l 6 5

l 6 44

l 44 39

l 44 34

l 15 34

l 34 33

l 3 39

l 1 3

l 37 1

l 37 36

l 36 38

l 1 38

l 38 39

l 2 3

l 42 2

l 43 42

l 5 43

g Mesh9 Group3 Model

l 40 50

l 41 40

l 49 41

l 50 49

g Mesh10 Group3 Model

l 47 48

l 46 47

l 45 46

l 48 45

g Mesh11 Group4 Model

usemtl Chris_Shoe
vt 395.974 0
vn 0 1 -0
vt 4.54607 685.847
vt 0 685.847
f 26/53/13 39/54/13 20/55/13

vt 398.247 3.93701
f 39/54/13 26/53/13 44/56/13

vt 1187.92 4.54747e-13
f 44/56/13 26/53/13 31/57/13

vt 1185.65 3.93701
f 44/56/13 31/57/13 34/58/13

v 20 2.66 -0
vt 1579.35 685.847
f 34/58/13 31/57/13 51/59/13

vt 1583.9 685.847
f 51/59/13 31/57/13 17/60/13

vt 1187.92 1371.69
f 18/61/13 51/59/13 17/60/13

v 10 2.66 -17.3205
vt 1185.65 1367.76
f 18/61/13 52/62/13 51/59/13

vt 398.247 1367.76
f 18/61/13 38/63/13 52/62/13

vt 395.974 1371.69
f 19/64/13 38/63/13 18/61/13

f 19/64/13 39/54/13 38/63/13

f 39/54/13 19/64/13 20/55/13

g Mesh12 Group4 Model

vt -342.923 91.7323
vn -0.5 -8.30356e-17 -0.866025
vt -346.86 1.75372e-14
vt -342.923 1.48054e-14
f 25/65/14 5/66/14 4/67/14

vt -346.86 91.7323
f 5/66/14 25/65/14 43/68/14

vt -207.829 325.876
vn 6.00921e-16 -1 -3.46942e-16
vt -191.554 361.94
vt -211.239 327.844
f 25/69/15 42/70/15 43/71/15

vt -188.144 359.971
f 42/70/15 25/69/15 24/72/15

vt 342.923 91.7323
vn 0.5 0 0.866025
vt 346.86 2.73182e-15
vt 346.86 91.7323
f 24/73/16 2/74/16 42/75/16

vt 342.923 0
f 2/74/16 24/73/16 11/76/16

g Mesh13 Group4 Model

vt -342.923 78.7402
vn -0.5 0 -0.866025
vt -346.86 39.3701
vt -342.923 39.3701
f 23/77/17 49/78/17 22/79/17

vt -346.86 78.7402
f 49/78/17 23/77/17 41/80/17

vt -178.302 377.019
vn -2.54079e-16 -1 1.46692e-16
vt -14.3886 668.799
vt -181.711 378.987
f 23/81/18 40/82/18 41/83/18

vt -10.979 666.831
f 40/82/18 23/81/18 32/84/18

vt 342.923 39.3701
vn 0.5 7.81492e-16 0.866025
vt 346.86 78.7402
vt 342.923 78.7402
f 21/85/19 40/86/19 32/87/19

vt 346.86 39.3701
f 40/86/19 21/85/19 50/88/19

vt 178.302 377.019
vn 2.54079e-16 1 -1.46692e-16
vt 14.3886 668.799
vt 10.979 666.831
f 22/89/20 50/90/20 21/91/20

vt 181.711 378.987
f 50/90/20 22/89/20 49/92/20

g Mesh14 Group4 Model

vn 0.5 -1.44382e-15 0.866025
f 47/88/21 30/87/21 29/85/21

f 30/87/21 47/88/21 48/86/21

vt -221.081 310.796
vn -1.10019e-15 -1 6.35197e-16
vt -384.995 19.0162
vt -217.672 308.828
f 48/93/22 27/94/22 30/95/22

vt -388.404 20.9848
f 27/94/22 48/93/22 45/96/22

f 46/78/17 27/77/17 45/80/17

f 27/77/17 46/78/17 28/79/17

vt 221.081 310.796
vn 1.10019e-15 1 -6.35197e-16
vt 384.995 19.0162
vt 388.404 20.9848
f 47/97/23 28/98/23 46/99/23

vt 217.672 308.828
f 28/98/23 47/97/23 29/100/23

g Mesh15 Group4 Model

l 31 17

l 26 31

l 20 26

l 19 20

l 18 19

l 17 18

g Mesh16 Group4 Model

l 51 52

l 34 51

l 44 34

l 44 39

l 38 39

l 52 38

g Mesh17 Group4 Model

l 24 11

l 25 24

l 4 25

l 5 4

l 5 43

l 43 25

l 43 42

l 42 24

l 42 2

l 2 11

g Mesh18 Group4 Model

l 41 23

l 49 41

l 49 22

l 50 49

l 50 21

l 40 50

l 41 40

l 40 32

l 32 21

l 23 32

l 22 23

l 21 22

g Mesh19 Group4 Model

l 47 48

l 46 47

l 46 28

l 45 46

l 45 27

l 48 45

l 48 30

l 29 30

l 28 29

l 27 28

l 30 27

l 47 29

