# Alias OBJ Model File
# Exported from SketchUp, (c) 2000-2012 Trimble Navigation Limited
# File units = meters

mtllib SpaceStationBarGrillBase.mtl

g Mesh1 Group1 Model

usemtl blueshade
v 10.0577 0 -17.4205
vt 1.00577 0
vn 0.866025 0 -0.5
v 20.1155 2.66 -0
vt -1.00577 0.773818
v 20.1155 0 -0
vt -1.00577 0
f 1/1/1 2/2/1 3/3/1

v 10.0577 2.66 -17.4205
vt 1.00577 0.773818
f 2/2/1 1/1/1 4/4/1

vn 2.87107e-16 0 -1
v -10.0577 2.66 -17.4205
f 1/3/2 5/4/2 4/2/2

v -10.0577 0 -17.4205
f 5/4/2 1/3/2 6/1/2

v -20.1155 0 -0
vn -0.866025 0 -0.5
f 7/1/3 5/2/3 6/3/3

v -20.1155 2.66 -0
f 5/2/3 7/1/3 8/4/3

vt -1.00577 1.72227e-15
vn -0.866025 -3.39848e-16 0.5
v -19.8366 1 0.483013
vt -0.95 0.290909
f 7/5/4 9/6/4 8/2/4

v -15.5866 1 7.84423
vt -0.1 0.290909
f 7/5/4 10/7/4 9/6/4

v -15.3366 -6.93883e-17 8.27724
vt -0.05 1.70209e-15
f 11/8/4 10/7/4 7/5/4

v -15.5866 2 7.84423
vt -0.1 0.581818
f 10/7/4 11/8/4 12/9/4

v -15.3366 2.33 8.27724
vt -0.05 0.677818
f 13/10/4 12/9/4 11/8/4

f 13/10/4 8/2/4 12/9/4

v -14.8366 2.33 9.14327
vt 0.05 0.677818
f 14/11/4 8/2/4 13/10/4

v -10.0577 2.66 17.4205
f 14/11/4 15/4/4 8/2/4

v -10.3366 2 16.9375
vt 0.95 0.581818
f 16/12/4 15/4/4 14/11/4

v -10.0577 0 17.4205
vt 1.00577 1.72227e-15
f 15/4/4 16/12/4 17/13/4

v -10.3366 1 16.9375
vt 0.95 0.290909
f 18/14/4 17/13/4 16/12/4

v -14.8366 -6.93883e-17 9.14327
vt 0.05 1.70209e-15
f 17/13/4 18/14/4 19/15/4

v -14.5866 1 9.57628
vt 0.1 0.290909
f 19/15/4 18/14/4 20/16/4

f 19/15/4 20/16/4 14/11/4

v -14.5866 2 9.57628
vt 0.1 0.581818
f 21/17/4 14/11/4 20/16/4

f 16/12/4 14/11/4 21/17/4

vn 5.74214e-16 0 1
v 10.0577 2.66 17.4205
f 17/3/5 22/4/5 15/2/5

v 10.0577 0 17.4205
f 22/4/5 17/3/5 23/1/5

vn 0.866025 0 0.5
f 3/1/6 22/2/6 23/3/6

f 22/2/6 3/1/6 2/4/6

v -19.8366 2 0.483013
vt -0.95 0.581818
f 12/9/4 8/2/4 24/18/4

f 24/18/4 8/2/4 9/6/4

g Mesh2 Group1 Model

l 8 15

l 5 8

l 4 5

l 1 4

l 1 6

l 3 1

l 23 3

l 17 23

l 17 15

l 19 17

l 19 14

l 14 13

l 13 11

l 7 11

l 6 7

l 6 5

l 7 8

l 15 22

l 22 2

l 23 22

l 2 4

l 3 2

g Mesh3 Group1 Model

l 24 9

l 12 24

l 10 12

l 9 10

g Mesh4 Group1 Model

l 20 21

l 18 20

l 16 18

l 21 16

g Mesh5 Group2 Model

usemtl Matrix
v 20 2.66 -0
vt -5 2.36444
v 10 0 17.3205
vt 5 0
v 10 2.66 17.3205
vt 5 2.36444
f 25/19/3 26/20/3 27/21/3

v 20 0 -0
vt -5 0
f 26/20/3 25/19/3 28/22/3

v 10 2.66 -17.3205
vn -0.866025 0 0.5
f 29/19/7 28/20/7 25/21/7

v 10 0 -17.3205
f 28/20/7 29/19/7 30/22/7

vn -2.88765e-16 0 1
v -10 0 -17.3205
f 29/21/8 31/22/8 30/20/8

v -10 2.66 -17.3205
f 31/22/8 29/21/8 32/19/8

v -20 2.66 -0
f 33/19/6 31/20/6 32/21/6

v -20 0 -0
f 31/20/6 33/19/6 34/22/6

vn 0.866025 1.61847e-16 -0.5
v -19.75 2 0.433013
vt 4.75 1.77778
vt 5 2.4918e-15
f 33/21/9 35/23/9 34/24/9

v -15.5 2 7.79423
vt 0.5 1.77778
f 33/21/9 36/25/9 35/23/9

v -15.25 2.33 8.22724
vt 0.25 2.07111
f 33/21/9 37/26/9 36/25/9

v -14.75 2.33 9.09327
vt -0.25 2.07111
f 33/21/9 38/27/9 37/26/9

v -10 2.66 17.3205
f 39/19/9 38/27/9 33/21/9

v -10.25 2 16.8875
vt -4.75 1.77778
f 38/27/9 39/19/9 40/28/9

v -10.25 1 16.8875
vt -4.75 0.888889
f 40/28/9 39/19/9 41/29/9

v -10 0 17.3205
vt -5 2.4918e-15
f 42/30/9 41/29/9 39/19/9

v -14.75 0 9.09327
vt -0.25 2.4918e-15
f 41/29/9 42/30/9 43/31/9

v -14.5 1 9.52628
vt -0.5 0.888889
f 41/29/9 43/31/9 44/32/9

v -14.5 2 9.52628
vt -0.5 1.77778
f 44/32/9 43/31/9 45/33/9

f 45/33/9 43/31/9 38/27/9

f 38/27/9 40/28/9 45/33/9

vn -5.77529e-16 0 -1
f 39/21/10 26/22/10 42/20/10

f 26/22/10 39/21/10 27/19/10

v -15.5 1 7.79423
vt 0.5 0.888889
f 36/25/9 37/26/9 46/34/9

v -15.25 0 8.22724
vt 0.25 2.4918e-15
f 47/35/9 46/34/9 37/26/9

f 46/34/9 47/35/9 34/24/9

v -19.75 1 0.433013
vt 4.75 0.888889
f 46/34/9 34/24/9 48/36/9

f 48/36/9 34/24/9 35/23/9

g Mesh6 Group2 Model

l 25 29

l 28 25

l 28 30

l 26 28

l 42 26

l 42 43

l 42 39

l 39 33

l 39 27

l 26 27

l 27 25

l 34 33

l 31 34

l 30 31

l 30 29

l 29 32

l 31 32

l 32 33

l 47 34

l 37 47

l 38 37

l 43 38

g Mesh7 Group2 Model

l 35 48

l 36 35

l 46 36

l 48 46

g Mesh8 Group2 Model

l 44 45

l 41 44

l 40 41

l 45 40

g Mesh9 Group3 Model

usemtl Chris_Shoe
vt 395.974 0
vn 0 1 -0
vt 4.54607 685.847
vt 0 685.847
f 15/37/11 33/38/11 8/39/11

vt 398.247 3.93701
f 33/38/11 15/37/11 39/40/11

vt 1187.92 4.54747e-13
f 39/40/11 15/37/11 22/41/11

vt 1185.65 3.93701
f 39/40/11 22/41/11 27/42/11

v 20 2.66 -0
vt 1579.35 685.847
f 27/42/11 22/41/11 49/43/11

vt 1583.9 685.847
f 49/43/11 22/41/11 2/44/11

vt 1187.92 1371.69
f 4/45/11 49/43/11 2/44/11

v 10 2.66 -17.3205
vt 1185.65 1367.76
f 4/45/11 50/46/11 49/43/11

vt 398.247 1367.76
f 4/45/11 32/47/11 50/46/11

vt 395.974 1371.69
f 5/48/11 32/47/11 4/45/11

f 5/48/11 33/38/11 32/47/11

f 33/38/11 5/48/11 8/39/11

g Mesh10 Group3 Model

vt -342.923 91.7323
vn -0.5 -8.30356e-17 -0.866025
vt -346.86 1.75372e-14
vt -342.923 1.48054e-14
f 14/49/12 43/50/12 19/51/12

vt -346.86 91.7323
f 43/50/12 14/49/12 38/52/12

vt -207.829 325.876
vn 6.00921e-16 -1 -3.46942e-16
vt -191.554 361.94
vt -211.239 327.844
f 14/53/13 37/54/13 38/55/13

vt -188.144 359.971
f 37/54/13 14/53/13 13/56/13

vt 342.923 91.7323
vn 0.5 0 0.866025
vt 346.86 2.73182e-15
vt 346.86 91.7323
f 13/57/14 47/58/14 37/59/14

vt 342.923 0
f 47/58/14 13/57/14 11/60/14

g Mesh11 Group3 Model

vt -342.923 78.7402
vn -0.5 0 -0.866025
vt -346.86 39.3701
vt -342.923 39.3701
f 12/61/15 46/62/15 10/63/15

vt -346.86 78.7402
f 46/62/15 12/61/15 36/64/15

vt -178.302 377.019
vn -2.54079e-16 -1 1.46692e-16
vt -14.3886 668.799
vt -181.711 378.987
f 12/65/16 35/66/16 36/67/16

vt -10.979 666.831
f 35/66/16 12/65/16 24/68/16

vt 342.923 39.3701
vn 0.5 7.81492e-16 0.866025
vt 346.86 78.7402
vt 342.923 78.7402
f 9/69/17 35/70/17 24/71/17

vt 346.86 39.3701
f 35/70/17 9/69/17 48/72/17

vt 178.302 377.019
vn 2.54079e-16 1 -1.46692e-16
vt 14.3886 668.799
vt 10.979 666.831
f 10/73/18 48/74/18 9/75/18

vt 181.711 378.987
f 48/74/18 10/73/18 46/76/18

g Mesh12 Group3 Model

vn 0.5 -1.44382e-15 0.866025
f 44/72/19 21/71/19 20/69/19

f 21/71/19 44/72/19 45/70/19

vt -221.081 310.796
vn -1.10019e-15 -1 6.35197e-16
vt -384.995 19.0162
vt -217.672 308.828
f 45/77/20 16/78/20 21/79/20

vt -388.404 20.9848
f 16/78/20 45/77/20 40/80/20

f 41/62/15 16/61/15 40/64/15

f 16/61/15 41/62/15 18/63/15

vt 221.081 310.796
vn 1.10019e-15 1 -6.35197e-16
vt 384.995 19.0162
vt 388.404 20.9848
f 44/81/21 18/82/21 41/83/21

vt 217.672 308.828
f 18/82/21 44/81/21 20/84/21

g Mesh13 Group3 Model

l 22 2

l 15 22

l 8 15

l 5 8

l 4 5

l 2 4

g Mesh14 Group3 Model

l 49 50

l 27 49

l 39 27

l 39 33

l 32 33

l 50 32

g Mesh15 Group3 Model

l 13 11

l 14 13

l 19 14

l 43 19

l 43 38

l 38 14

l 38 37

l 37 13

l 37 47

l 47 11

g Mesh16 Group3 Model

l 36 12

l 46 36

l 46 10

l 48 46

l 48 9

l 35 48

l 36 35

l 35 24

l 24 9

l 12 24

l 10 12

l 9 10

g Mesh17 Group3 Model

l 44 45

l 41 44

l 41 18

l 40 41

l 40 16

l 45 40

l 45 21

l 20 21

l 18 20

l 16 18

l 21 16

l 44 20

g Mesh18 Group4 Model

usemtl PurpleHexGrid
vt 1.00577 3.09669
vn 4.73547e-19 -1 -2.73402e-19
vt 2 0
vt 2.01155 0
f 6/85/22 34/86/22 7/87/22

vt 1 3.07891
f 34/86/22 6/85/22 31/88/22

vt -1.00577 3.09669
f 31/88/22 6/85/22 1/89/22

v 10 0 -17.3205
vt -1 3.07891
f 31/88/22 1/89/22 51/90/22

v 20 0 -0
vt -2 0
f 51/90/22 1/89/22 52/91/22

vt -2.01155 0
f 52/91/22 1/89/22 3/92/22

vt -1.00577 -3.09669
f 23/93/22 52/91/22 3/92/22

vt -1 -3.07891
f 23/93/22 26/94/22 52/91/22

vt 1 -3.07891
f 23/93/22 42/95/22 26/94/22

vt 1.00577 -3.09669
f 17/96/22 42/95/22 23/93/22

vt 1.475 -1.61643
f 17/96/22 43/97/22 42/95/22

v -14.8366 -6.76792e-17 9.14327
vt 1.48366 -1.62532
f 43/97/22 17/96/22 53/98/22

v -10 -0.1 17.3205
vt -1 -0.0177761
vn 5.77529e-16 -3.77646e-19 1
vt 1 0
vt -1 0
f 54/99/23 26/100/23 42/101/23

v 10 -0.1 17.3205
vt 1 -0.0177761
f 26/100/23 54/99/23 55/102/23

vn 6.54102e-19 -1 -3.77646e-19
v 10 -0.1 -17.3205
f 54/95/24 56/90/24 55/94/24

v -10 -0.1 -17.3205
f 54/95/24 57/88/24 56/90/24

v -14.75 -0.1 9.09327
f 58/97/24 57/88/24 54/95/24

v -14.8366 -0.1 9.14327
f 59/98/24 57/88/24 58/97/24

v -15.25 -0.1 8.22724
vt 1.525 -1.46248
f 60/103/24 57/88/24 59/98/24

v -20 -0.1 -0
f 57/88/24 60/103/24 61/86/24

vt -0.05 -0.0177761
vn -0.866025 -7.55292e-19 0.5
vt -1 3.46945e-18
f 60/104/25 34/105/25 61/99/25

vt -0.05 3.46945e-18
f 34/105/25 60/104/25 47/106/25

v -15.3366 -6.76792e-17 8.27724
vt 1.53366 -1.47137
f 62/107/22 34/86/22 47/103/22

f 34/86/22 62/107/22 7/87/22

vn -0.866025 -3.77646e-19 -0.5
f 31/101/26 61/102/26 34/100/26

f 61/102/26 31/101/26 57/99/26

vn 2.88765e-16 3.77646e-19 -1
f 31/100/27 56/99/27 57/102/27

f 56/99/27 31/100/27 51/101/27

vt -1 -3.46945e-18
vn 0.866025 7.55292e-19 -0.5
vt 1 -3.46945e-18
f 52/108/28 56/102/28 51/109/28

v 20 -0.1 -0
f 56/102/28 52/108/28 63/99/28

vn 0.866025 3.77646e-19 0.5
f 26/101/29 63/102/29 52/100/29

f 63/102/29 26/101/29 55/99/29

f 55/94/24 56/90/24 63/91/24

v -15.3366 -0.1 8.27724
f 59/98/24 64/107/24 60/103/24

g Mesh19 Group4 Model

l 3 1

l 23 3

l 17 23

l 53 17

l 43 53

l 42 43

l 42 26

l 42 54

l 54 58

l 54 55

l 55 63

l 26 55

l 26 52

l 52 51

l 52 63

l 63 56

l 56 57

l 51 56

l 51 31

l 31 34

l 31 57

l 57 61

l 60 61

l 60 64

l 47 60

l 47 34

l 47 62

l 7 62

l 6 7

l 1 6

l 34 61

l 64 59

l 58 59

g Mesh20 Model

vt 0.05 2.32548e-18
vt 1 2.32548e-18
f 43/110/25 54/102/25 42/111/25

vt 0.05 -0.0177761
f 54/102/25 43/110/25 58/112/25

vt -1.74205 -1.23346e-17
vn 0.5 -5.7724e-33 0.866025
vt -1.73205 -0.0177761
vt -1.73205 5.13054e-34
f 19/113/30 58/114/30 43/115/30

vt -1.74205 -0.0177761
f 58/114/30 19/113/30 59/116/30

vt -0.05 -9.99565e-18
vt 0.05 -9.99565e-18
f 11/117/25 59/112/25 19/118/25

f 59/112/25 11/117/25 64/104/25

vt 1.74205 -1.23346e-17
vn -0.5 5.7724e-33 -0.866025
vt 1.73205 -0.0177761
vt 1.74205 -0.0177761
f 11/119/31 60/120/31 64/121/31

vt 1.73205 -5.13054e-34
f 60/120/31 11/119/31 47/122/31

g Mesh21 Model

l 42 43

l 42 54

l 54 58

l 58 59

l 43 58

l 43 19

l 11 19

l 47 11

l 47 60

l 60 64

l 64 59

l 11 64

l 19 59

