# Alias OBJ Model File
# Exported from SketchUp, (c) 2000-2012 Trimble Navigation Limited
# File units = meters

mtllib SS.mtl

g Mesh1 Group1 ss1 Model

usemtl _3
v 9.55866 1 -17.3205
vt 1.91173 0.355556
vn 0 0 1
v -9.55866 1 -17.3205
vt -1.91173 0.355556
v 9.56134 1 -17.3205
vt 1.91227 0.355556
f 1/1/1 2/2/1 3/3/1

v -10 0.12 -17.3205
vt -2 0.0426667
f 2/2/1 4/4/1 3/3/1

v -10 2.55 -17.3205
vt -2 0.906667
f 4/4/1 2/2/1 5/5/1

v -9.55866 2 -17.3205
vt -1.91173 0.711111
f 5/5/1 2/2/1 6/6/1

v 10 2.55 -17.3205
vt 2 0.906667
f 5/5/1 6/6/1 7/7/1

v 9.56134 2 -17.3205
vt 1.91227 0.711111
f 8/8/1 7/7/1 6/6/1

f 3/3/1 7/7/1 8/8/1

v 10 0.12 -17.3205
vt 2 0.0426667
f 3/3/1 9/9/1 7/7/1

f 9/9/1 3/3/1 4/4/1

v 20 0.12 -0
vn -0.866025 0 0.5
f 10/9/2 7/5/2 9/4/2

v 20 2.55 -0
f 7/5/2 10/9/2 11/7/2

vn -0.866025 -1.01164e-16 -0.5
v 19.7793 1 0.382213
f 10/4/3 12/2/3 11/5/3

v 15.4793 1 7.83003
vt -0.191732 0.355556
f 10/4/3 13/10/3 12/2/3

v 15.2286 0.12 8.26431
vt -0.09144 0.0426667
f 13/10/3 10/4/3 14/11/3

v 15.4793 2 7.83003
vt -0.191732 0.711111
f 14/11/3 15/12/3 13/10/3

v 15.2286 2.1336 8.26431
vt -0.09144 0.758613
f 16/13/3 15/12/3 14/11/3

f 16/13/3 11/5/3 15/12/3

v 14.7714 2.1336 9.0562
vt 0.09144 0.758613
f 17/14/3 11/5/3 16/13/3

v 10.2207 2 16.9383
vt 1.91173 0.711111
f 18/15/3 11/5/3 17/14/3

v 10 2.55 17.3205
f 18/15/3 19/7/3 11/5/3

v 10 0.12 17.3205
f 19/7/3 18/15/3 20/9/3

v 10.2207 1 16.9383
f 21/1/3 20/9/3 18/15/3

v 14.7714 0.12 9.0562
vt 0.09144 0.0426667
f 20/9/3 21/1/3 22/16/3

v 14.5207 1 9.49048
vt 0.191732 0.355556
f 22/16/3 21/1/3 23/17/3

f 22/16/3 23/17/3 17/14/3

v 14.5207 2 9.49048
vt 0.191732 0.711111
f 24/18/3 17/14/3 23/17/3

f 18/15/3 17/14/3 24/18/3

vn 0 0 -1
v 9.55866 1 17.3205
f 20/4/4 25/2/4 19/5/4

v -9.56134 1 17.3205
f 25/2/4 20/4/4 26/3/4

v -10 0.12 17.3205
f 27/9/4 26/3/4 20/4/4

v -10 2.55 17.3205
f 26/3/4 27/9/4 28/7/4

v -20 0.12 1.15506e-14
vn 0.866025 0 -0.5
f 29/9/5 28/5/5 27/4/5

v -20 2.55 1.15506e-14
f 28/5/5 29/9/5 30/7/5

vn 0.866025 -6.82304e-17 0.5
v -19.7793 1 -0.382213
f 29/4/6 31/2/6 30/5/6

v -15.2286 0.12 -8.26431
f 31/2/6 29/4/6 32/11/6

v -15.4786 1 -7.83129
vt -0.19144 0.355556
f 31/2/6 32/11/6 33/19/6

v -15.4786 2 -7.83129
vt -0.19144 0.711111
f 33/19/6 32/11/6 34/20/6

v -15.2286 2.133 -8.26431
vt -0.09144 0.7584
f 35/21/6 34/20/6 32/11/6

v -19.7793 2 -0.382213
f 35/21/6 36/6/6 34/20/6

f 5/7/6 36/6/6 35/21/6

f 30/5/6 36/6/6 5/7/6

f 36/6/6 30/5/6 31/2/6

v -15 2.133 -8.66025
vt 0 0.7584
f 5/7/6 35/21/6 37/22/6

v -14.77 2.13 -9.05863
vt 0.092 0.757333
f 5/7/6 37/22/6 38/23/6

v -15 2.13 -8.66025
vt 0 0.757333
f 38/23/6 37/22/6 39/24/6

v -14.52 2 -9.49164
vt 0.192 0.711111
f 5/7/6 38/23/6 40/25/6

v -14.52 1 -9.49164
vt 0.192 0.355556
f 40/25/6 38/23/6 41/26/6

v -14.77 0.12 -9.05863
vt 0.092 0.0426667
f 42/27/6 41/26/6 38/23/6

f 41/26/6 42/27/6 4/9/6

v -10.2207 1 -16.9383
f 41/26/6 4/9/6 43/1/6

v -10.2193 1 -16.9406
f 43/1/6 4/9/6 44/3/6

f 5/7/6 44/3/6 4/9/6

v -10.2193 2 -16.9406
f 5/7/6 45/8/6 44/3/6

f 5/7/6 40/25/6 45/8/6

v -9.56134 2 17.3205
f 26/3/4 28/7/4 46/8/4

v 9.55866 2 17.3205
f 46/8/4 28/7/4 47/6/4

f 19/5/4 47/6/4 28/7/4

f 19/5/4 25/2/4 47/6/4

v 19.7793 2 0.382213
f 15/12/3 11/5/3 48/6/3

f 48/6/3 11/5/3 12/2/3

g Mesh2 Group2 ss1 Model

usemtl _2
v 10.0587 0 17.4221
vt -1.00587 -3.08961e-16
vn 0.866025 9.9753e-17 0.5
v 10.3087 1 16.9891
vt -0.955866 0.177778
v 10.0587 2.55 17.4221
vt -1.00587 0.453333
f 49/28/7 50/29/7 51/30/7

v 14.8594 0 9.107
vt -0.04572 -3.08961e-16
f 50/29/7 49/28/7 52/31/7

v 14.6087 1 9.54128
vt -0.0958659 0.177778
f 50/29/7 52/31/7 53/32/7

v 14.8594 0.12 9.107
vt -0.04572 0.0213333
f 53/32/7 52/31/7 54/33/7

v 15.3166 0.12 8.31511
vt 0.04572 0.0213333
f 54/33/7 52/31/7 55/34/7

v 20.1173 0 -0
vt 1.00587 -3.08961e-16
f 55/34/7 52/31/7 56/35/7

v 15.5673 1 7.88083
vt 0.0958659 0.177778
f 55/34/7 56/35/7 57/36/7

v 19.8673 1 0.433013
vt 0.955866 0.177778
f 57/36/7 56/35/7 58/37/7

v 19.8673 2 0.433013
vt 0.955866 0.355556
f 58/37/7 56/35/7 59/38/7

v 20.1173 2.55 -0
vt 1.00587 0.453333
f 60/39/7 59/38/7 56/35/7

v 15.5673 2 7.88083
vt 0.0958659 0.355556
f 60/39/7 61/40/7 59/38/7

v 15.3166 2.1336 8.31511
vt 0.04572 0.379307
f 60/39/7 62/41/7 61/40/7

v 14.8594 2.1336 9.107
vt -0.04572 0.379307
f 60/39/7 63/42/7 62/41/7

v 10.3087 2 16.9891
vt -0.955866 0.355556
f 60/39/7 64/43/7 63/42/7

f 51/30/7 64/43/7 60/39/7

f 64/43/7 51/30/7 50/29/7

v 14.6087 2 9.54128
vt -0.0958659 0.355556
f 63/42/7 64/43/7 65/44/7

f 63/42/7 65/44/7 53/32/7

f 63/42/7 53/32/7 54/33/7

f 61/40/7 62/41/7 55/34/7

f 61/40/7 55/34/7 57/36/7

v 10.0587 0 -17.4221
vt 1.00587 2.795e-16
vn 0.866025 -9.02409e-17 -0.5
vt -1.00587 2.795e-16
f 66/45/8 60/30/8 56/46/8

v 10.0587 2.55 -17.4221
f 60/30/8 66/45/8 67/39/8

vt -1.00587 0
v 9.56134 1 -17.4221
vt -0.956134 0.177778
f 66/47/4 68/48/4 67/30/4

v -9.55866 1 -17.4221
f 68/48/4 66/47/4 69/37/4

v -10.0587 0 -17.4221
vt 1.00587 0
f 70/49/4 69/37/4 66/47/4

v -10.0587 2.55 -17.4221
f 69/37/4 70/49/4 71/39/4

vt -1.00587 -3.38273e-16
vn -0.866025 1.09217e-16 -0.5
v -10.3073 1 -16.9914
f 70/50/9 72/48/9 71/30/9

v -10.3087 1 -16.9891
f 70/50/9 73/29/9 72/48/9

v -14.608 1 -9.54244
vt -0.096 0.177778
f 70/50/9 74/51/9 73/29/9

v -14.858 0.12 -9.10943
vt -0.046 0.0213333
f 70/50/9 75/52/9 74/51/9

v -15.3166 -9.54568e-15 -8.31511
vt 0.04572 -2.03528e-15
f 76/53/9 75/52/9 70/50/9

v -15.3166 0.12 -8.31511
f 76/53/9 77/34/9 75/52/9

v -15.5666 1 -7.88209
vt 0.09572 0.177778
f 76/53/9 78/54/9 77/34/9

v -19.8673 1 -0.433013
f 76/53/9 79/37/9 78/54/9

v -20.1173 0 1.15506e-14
vt 1.00587 -3.38273e-16
f 80/55/9 79/37/9 76/53/9

v -19.8673 2 -0.433013
f 79/37/9 80/55/9 81/38/9

v -20.1173 2.55 1.15506e-14
f 82/39/9 81/38/9 80/55/9

f 81/38/9 82/39/9 71/30/9

v -15.3166 2.133 -8.31511
vt 0.04572 0.3792
f 81/38/9 71/30/9 83/56/9

v -15.088 2.133 -8.71105
vt 0 0.3792
f 83/56/9 71/30/9 84/57/9

v -15.088 2.13 -8.71105
vt 0 0.378667
f 84/57/9 71/30/9 85/58/9

v -14.858 2.13 -9.10943
vt -0.046 0.378667
f 85/58/9 71/30/9 86/59/9

v -14.608 2 -9.54244
vt -0.096 0.355556
f 86/59/9 71/30/9 87/60/9

v -10.3073 2 -16.9914
vt -0.956134 0.355556
f 87/60/9 71/30/9 88/61/9

f 88/61/9 71/30/9 72/48/9

f 86/59/9 87/60/9 75/52/9

f 74/51/9 75/52/9 87/60/9

v -15.5666 2 -7.88209
vt 0.09572 0.355556
f 81/38/9 83/56/9 89/62/9

f 89/62/9 83/56/9 78/54/9

f 78/54/9 83/56/9 77/34/9

v -10.0587 0 17.4221
vt 1.00587 -1.28393e-16
vn -0.866025 4.14536e-17 0.5
vt -1.00587 -1.28393e-16
f 90/63/10 82/30/10 80/64/10

v -10.0587 2.55 17.4221
f 82/30/10 90/63/10 91/39/10

v -9.56134 1 17.4221
f 90/47/1 92/48/1 91/30/1

v 9.55866 1 17.4221
f 92/48/1 90/47/1 93/37/1

f 49/49/1 93/37/1 90/47/1

f 93/37/1 49/49/1 51/39/1

v 9.55866 2 17.4221
f 93/37/1 51/39/1 94/38/1

v -9.56134 2 17.4221
f 94/38/1 51/39/1 95/61/1

f 91/30/1 95/61/1 51/39/1

f 91/30/1 92/48/1 95/61/1

v -9.55866 2 -17.4221
f 69/37/4 71/39/4 96/38/4

v 9.56134 2 -17.4221
f 96/38/4 71/39/4 97/61/4

f 67/30/4 97/61/4 71/39/4

f 67/30/4 68/48/4 97/61/4

v 9.55866 1 -17.4221
f 98/29/4 68/48/4 69/37/4

g Mesh3 ss1 Model

usemtl Chris_Shoe
vt -189.005 1013.28
vn -2.15747e-17 -1 1.52053e-16
v -20 0 1.15506e-14
vt -4.6188 685.91
vt 8.10807e-30 685.91
f 76/65/11 99/66/11 80/67/11

v -15.2286 -9.74164e-19 -8.26431
vt -192.469 1011.28
f 99/66/11 76/65/11 100/68/11

vt -396.01 1371.82
vn 1.0697e-16 -1 -8.57073e-17
f 70/69/12 100/68/12 76/65/12

v -10 0 -17.3205
vt -398.32 1367.82
f 100/68/12 70/69/12 101/70/12

vt -1188.03 1371.82
f 101/70/12 70/69/12 66/71/12

v 10 0 -17.3205
vt -1185.72 1367.82
f 101/70/12 66/71/12 102/72/12

v 20 0 -0
vt -1579.42 685.91
f 102/72/12 66/71/12 103/73/12

vt -1584.04 685.91
f 103/73/12 66/71/12 56/74/12

vt -1377.04 327.366
f 52/75/12 103/73/12 56/74/12

v 14.7714 0 9.0562
vt -1373.57 329.366
f 103/73/12 52/75/12 104/76/12

vt -1188.03 -6.1041e-29
f 49/77/11 104/76/11 52/75/11

v 10 0 17.3205
vt -1185.72 4
f 49/77/11 105/78/11 104/76/11

v -10 0 17.3205
vt -398.32 4
f 49/77/11 106/79/11 105/78/11

vt -396.01 -5.84428e-29
f 90/80/11 106/79/11 49/77/11

f 90/80/11 99/66/11 106/79/11

f 99/66/11 90/80/11 80/67/11

vt 591.706 3.75814e-13
vt -195.696 4.72441
vt -195.696 3.75814e-13
f 99/81/5 27/82/5 106/83/5

vt 591.706 4.72441
f 27/82/5 99/81/5 29/84/5

vt 972.025 2.02299e-13
vn 0.866025 -5.11798e-16 0.5
vt 596.325 4.72441
vt 596.325 2.02338e-13
f 100/85/13 29/86/13 99/87/13

vt 972.025 4.72441
f 29/86/13 100/85/13 32/88/13

vt 1383.73 -4.89616e-13
vn 0.866025 -2.55323e-15 0.5
vt 972.025 -4.89655e-13
f 101/89/14 32/88/14 100/90/14

vt 1008.14 4.72441
f 32/88/14 101/89/14 42/91/14

vt 1383.73 4.72441
f 42/91/14 101/89/14 4/92/14

vt 398.32 3.75814e-13
v 10 0.12 -17.3205
vt 1185.72 4.72441
vt 398.32 4.72441
f 101/93/1 107/94/1 4/95/1

vt 1185.72 3.75814e-13
f 107/94/1 101/93/1 102/96/1

vt 195.696 3.75814e-13
vt -591.706 4.72441
vt -591.706 3.75814e-13
f 103/97/2 107/98/2 102/99/2

vt 195.696 4.72441
f 107/98/2 103/97/2 10/100/2

usemtl _1
vt -1.42857 -3.74292e-15
vn -0.866025 -8.50965e-16 -0.5
vt -0.0653143 0.0304733
vt -1.42857 0.0304733
f 103/101/15 14/102/15 10/103/15

vt 0.0653143 0.0304733
f 103/101/15 22/104/15 14/102/15

vt 0.0653143 -3.74292e-15
f 22/104/15 103/101/15 104/105/15

vt 1.42857 -7.85198e-15
vn -0.866025 -1.78517e-15 -0.5
vt 0.0653143 -7.85198e-15
f 105/106/16 22/104/16 104/107/16

vt 1.42857 0.0304733
f 22/104/16 105/106/16 20/108/16

usemtl Chris_Shoe
vt -1185.72 3.75814e-13
vt -398.32 4.72441
vt -1185.72 4.72441
f 105/109/4 27/110/4 20/111/4

vt -398.32 3.75814e-13
f 27/110/4 105/109/4 106/112/4

vt 1377.04 327.366
vn -3.82416e-14 1 -2.81326e-14
vt 1391.57 360.543
vt 1373.57 329.366
f 54/113/17 14/114/17 22/115/17

vt 1395.04 358.543
f 14/114/17 54/113/17 55/116/17

vt 1028.86 84
vn -0.5 -6.20771e-16 0.866025
vt 1024.86 4.72441
vt 1028.86 4.72441
f 62/117/18 14/118/18 55/119/18

vt 1024.86 84
f 14/118/18 62/117/18 16/120/18

vn 0 -1 -0
vt -1391.57 360.543
vt -1395.04 358.543
f 63/75/19 16/121/19 62/122/19

f 16/121/19 63/75/19 17/76/19

vt -1028.86 4.72441
vn 0.5 5.39874e-16 -0.866025
vt -1024.86 84
vt -1028.86 84
f 54/123/20 17/124/20 63/125/20

vt -1024.86 4.72441
f 17/124/20 54/123/20 22/126/20

vt 207.06 1044.55
vn -4.30794e-14 1 -1.8865e-14
vt 192.469 1011.28
vt 210.524 1042.55
f 75/127/21 32/128/21 42/129/21

vt 189.005 1013.28
f 32/128/21 75/127/21 77/130/21

vt 342.955 83.9764
vn 0.5 -1.03957e-15 -0.866025
vt 338.955 4.72441
vt 342.955 4.72441
f 83/131/22 32/132/22 77/133/22

vt 338.955 83.9764
f 32/132/22 83/131/22 35/134/22

vt -198.005 1028.86
f 84/135/19 35/68/19 83/65/19

vt -201.469 1026.86
f 35/68/19 84/135/19 37/136/19

vt -342.955 83.8583
vn -0.5 0 0.866025
vt -338.955 83.9764
vt -342.955 83.9764
f 85/137/23 37/138/23 84/139/23

vt -338.955 83.8583
f 37/138/23 85/137/23 39/140/23

vt -207.06 1044.55
f 86/141/19 39/136/19 85/135/19

vt -210.524 1042.55
f 39/136/19 86/141/19 38/142/19

vt -342.955 4.72441
vn -0.5 6.22996e-16 0.866025
f 75/143/24 38/140/24 86/137/24

vt -338.955 4.72441
f 38/140/24 75/143/24 42/144/24

g Mesh4 ss1 Model

vt -1168.45 1371.82
vt -415.695 1367.82
vt -415.695 1371.82
f 97/145/19 6/146/19 96/147/19

vt -1168.45 1367.82
f 6/146/19 97/145/19 8/148/19

vt -1371.82 78.7402
vn -1 0 -0
vt -1367.82 39.3701
vt -1367.82 78.7402
f 97/149/25 3/150/25 8/151/25

vt -1371.82 39.3701
f 3/150/25 97/149/25 68/152/25

vt 1168.35 1371.82
vn 6.72816e-14 1 -0
vt 1168.45 1367.82
vt 1168.45 1371.82
f 98/153/26 3/154/26 68/155/26

vt 1168.35 1367.82
f 3/154/26 98/153/26 1/156/26

vt 415.695 1371.82
vn -9.44054e-18 1 -0
f 69/157/27 1/156/27 98/153/27

vt 415.695 1367.82
f 1/156/27 69/157/27 2/158/27

vt 1371.82 39.3701
vn 1 0 -0
vt 1367.82 78.7402
vt 1367.82 39.3701
f 69/159/28 6/160/28 2/161/28

vt 1371.82 78.7402
f 6/160/28 69/159/28 96/162/28

g Mesh5 ss1 Model

vt -1024.86 78.7402
vn 0.5 -1.24948e-15 -0.866025
vt -1028.86 39.3701
vt -1024.86 39.3701
f 15/163/29 57/164/29 13/165/29

vt -1028.86 78.7402
f 57/164/29 15/163/29 61/166/29

v 19.7793 2 0.382213
vt -1570.73 670.862
vn 3.81118e-16 -1 2.20039e-16
vt -1404.91 375.641
vt -1401.44 377.641
f 108/167/30 61/168/30 15/169/30

vt -1574.2 668.862
f 61/168/30 108/167/30 59/170/30

v 19.7793 1 0.382213
vt 1024.86 39.3701
vt 1028.86 78.7402
vt 1024.86 78.7402
f 109/171/23 59/172/23 108/173/23

vt 1028.86 39.3701
f 59/172/23 109/171/23 58/174/23

vt 1570.73 670.862
vn 0 1 -0
vt 1404.91 375.641
vt 1574.2 668.862
f 109/175/31 57/176/31 58/177/31

vt 1401.44 377.641
f 57/176/31 109/175/31 13/178/31

g Mesh6 ss1 Model

vn -0.5 -1.25329e-15 0.866025
f 53/174/32 24/173/32 23/171/32

f 24/173/32 53/174/32 65/172/32

vt -1197.87 17.0477
vn -3.81118e-16 -1 -2.20039e-16
vt -1363.7 312.269
vt -1367.16 310.269
f 64/179/33 24/180/33 65/181/33

vt -1194.41 19.0477
f 24/180/33 64/179/33 18/182/33

vn 0.5 0 -0.866025
f 50/164/34 18/163/34 64/166/34

f 18/163/34 50/164/34 21/165/34

vt 1197.87 17.0477
vn -1.53837e-15 1 -8.88178e-16
vt 1363.7 312.269
vt 1194.41 19.0477
f 50/183/35 23/184/35 21/185/35

vt 1367.16 310.269
f 23/184/35 50/183/35 53/186/35

g Mesh7 ss1 Model

vt 396.01 0
v -20 2.55 1.15506e-14
vt 4.6188 685.91
vt 0 685.91
f 91/187/31 110/188/31 82/189/31

v -10 2.55 17.3205
vt 398.32 4
f 110/188/31 91/187/31 111/190/31

vt 1188.03 0
f 111/190/31 91/187/31 51/191/31

v 10 2.55 17.3205
vt 1185.72 4
f 111/190/31 51/191/31 112/192/31

v 20 2.55 -0
vt 1579.42 685.91
f 112/192/31 51/191/31 113/193/31

vt 1584.04 685.91
f 113/193/31 51/191/31 60/194/31

vt 1188.03 1371.82
f 67/195/31 113/193/31 60/194/31

v 10 2.55 -17.3205
vt 1185.72 1367.82
f 67/195/31 114/196/31 113/193/31

v -10 2.55 -17.3205
vt 398.32 1367.82
f 67/195/31 115/197/31 114/196/31

vt 396.01 1371.82
f 71/198/31 115/197/31 67/195/31

f 71/198/31 110/188/31 115/197/31

f 110/188/31 71/198/31 82/189/31

g Mesh8 ss1 Model

vt -338.955 39.3701
vn -0.5 -3.9446e-15 0.866025
vt -342.955 78.7402
vt -342.955 39.3701
f 44/199/36 88/200/36 72/201/36

vt -338.955 78.7402
f 88/200/36 44/199/36 45/202/36

vt -220.367 1059.6
vn -3.59355e-16 -1 -2.07473e-16
vt -386.22 1354.86
vt -389.685 1352.86
f 40/203/37 88/204/37 45/205/37

vt -216.903 1061.6
f 88/204/37 40/203/37 87/206/37

vt 338.955 39.3701
vt 342.955 78.7402
vt 338.955 78.7402
f 41/207/34 87/208/34 40/209/34

vt 342.955 39.3701
f 87/208/34 41/207/34 74/210/34

vt 220.367 1059.6
vn 3.4886e-16 1 2.25651e-16
vt 386.168 1354.77
vt 216.903 1061.6
f 41/211/38 73/212/38 74/213/38

vt 389.632 1352.77
f 73/212/38 41/211/38 43/214/38

vn 3.59355e-16 1 2.07473e-16
vt 386.22 1354.86
f 43/214/39 72/215/39 73/212/39

vt 389.685 1352.86
f 72/215/39 43/214/39 44/216/39

g Mesh9 ss1 Model

vt 4 39.3701
vt 0 78.7402
vt 0 39.3701
f 26/217/28 95/218/28 92/219/28

vt 4 78.7402
f 95/218/28 26/217/28 46/220/28

v 9.55866 2 17.3205
vt -1168.35 4
vt -415.59 0
vt -415.59 4
f 116/221/19 95/222/19 46/223/19

vt -1168.35 0
f 95/222/19 116/221/19 94/224/19

vt -4 78.7402
f 116/225/25 93/219/25 94/218/25

v 9.55866 1 17.3205
vt -4 39.3701
f 93/219/25 116/225/25 117/226/25

vt 415.59 4
vt 1168.35 0
vt 1168.35 4
f 26/227/31 93/228/31 117/229/31

vt 415.59 0
f 93/228/31 26/227/31 92/230/31

g Mesh10 ss1 Model

vt 13.3066 700.958
vn -8.46252e-32 1 -4.88584e-32
vt 179.163 996.228
vt 9.84252 702.958
f 31/231/40 78/232/40 79/233/40

vt 182.627 994.228
f 78/232/40 31/231/40 33/234/40

f 34/202/23 78/201/23 33/199/23

f 78/201/23 34/202/23 89/200/23

vt -13.3066 700.958
vn 8.46252e-32 -1 4.88584e-32
vt -179.163 996.228
vt -182.627 994.228
f 36/235/41 89/236/41 34/237/41

vt -9.84252 702.958
f 89/236/41 36/235/41 81/238/41

vn 0.5 -1.56298e-16 -0.866025
f 31/207/42 81/208/42 36/209/42

f 81/208/42 31/207/42 79/210/42

