# Alias OBJ Model File
# Exported from SketchUp, (c) 2000-2012 Trimble Navigation Limited
# File units = meters

mtllib SS.mtl

g Mesh1 Group1 Model

usemtl _2
v 10.0587 0 17.4221
vt -1.00587 -3.08961e-16
vn 0.866025 9.9753e-17 0.5
v 10.3087 1 16.9891
vt -0.955866 0.177778
v 10.0587 2.55 17.4221
vt -1.00587 0.453333
f 1/1/1 2/2/1 3/3/1

v 14.8594 0 9.107
vt -0.04572 -3.08961e-16
f 2/2/1 1/1/1 4/4/1

v 14.6087 1 9.54128
vt -0.0958659 0.177778
f 2/2/1 4/4/1 5/5/1

v 14.8594 0.12 9.107
vt -0.04572 0.0213333
f 5/5/1 4/4/1 6/6/1

v 15.3166 0.12 8.31511
vt 0.04572 0.0213333
f 6/6/1 4/4/1 7/7/1

v 20.1173 0 -0
vt 1.00587 -3.08961e-16
f 7/7/1 4/4/1 8/8/1

v 15.5673 1 7.88083
vt 0.0958659 0.177778
f 7/7/1 8/8/1 9/9/1

v 19.8673 1 0.433013
vt 0.955866 0.177778
f 9/9/1 8/8/1 10/10/1

v 19.8673 2 0.433013
vt 0.955866 0.355556
f 10/10/1 8/8/1 11/11/1

v 20.1173 2.55 -0
vt 1.00587 0.453333
f 12/12/1 11/11/1 8/8/1

v 15.5673 2 7.88083
vt 0.0958659 0.355556
f 12/12/1 13/13/1 11/11/1

v 15.3166 2.1336 8.31511
vt 0.04572 0.379307
f 12/12/1 14/14/1 13/13/1

v 14.8594 2.1336 9.107
vt -0.04572 0.379307
f 12/12/1 15/15/1 14/14/1

v 10.3087 2 16.9891
vt -0.955866 0.355556
f 12/12/1 16/16/1 15/15/1

f 3/3/1 16/16/1 12/12/1

f 16/16/1 3/3/1 2/2/1

v 14.6087 2 9.54128
vt -0.0958659 0.355556
f 15/15/1 16/16/1 17/17/1

f 15/15/1 17/17/1 5/5/1

f 15/15/1 5/5/1 6/6/1

f 13/13/1 14/14/1 7/7/1

f 13/13/1 7/7/1 9/9/1

v 10.0587 0 -17.4221
vt 1.00587 2.795e-16
vn 0.866025 -9.02409e-17 -0.5
vt -1.00587 2.795e-16
f 18/18/2 12/3/2 8/19/2

v 10.0587 2.55 -17.4221
f 12/3/2 18/18/2 19/12/2

vt -1.00587 0
vn 0 0 -1
v 9.56134 1 -17.4221
vt -0.956134 0.177778
f 18/20/3 20/21/3 19/3/3

v -9.55866 1 -17.4221
f 20/21/3 18/20/3 21/10/3

v -10.0587 0 -17.4221
vt 1.00587 0
f 22/22/3 21/10/3 18/20/3

v -10.0587 2.55 -17.4221
f 21/10/3 22/22/3 23/12/3

vt -1.00587 -3.38273e-16
vn -0.866025 1.09217e-16 -0.5
v -10.3073 1 -16.9914
f 22/23/4 24/21/4 23/3/4

v -10.3087 1 -16.9891
f 22/23/4 25/2/4 24/21/4

v -14.608 1 -9.54244
vt -0.096 0.177778
f 22/23/4 26/24/4 25/2/4

v -14.858 0.12 -9.10943
vt -0.046 0.0213333
f 22/23/4 27/25/4 26/24/4

v -15.3166 -9.54568e-15 -8.31511
vt 0.04572 -2.03528e-15
f 28/26/4 27/25/4 22/23/4

v -15.3166 0.12 -8.31511
f 28/26/4 29/7/4 27/25/4

v -15.5666 1 -7.88209
vt 0.09572 0.177778
f 28/26/4 30/27/4 29/7/4

v -19.8673 1 -0.433013
f 28/26/4 31/10/4 30/27/4

v -20.1173 0 1.15506e-14
vt 1.00587 -3.38273e-16
f 32/28/4 31/10/4 28/26/4

v -19.8673 2 -0.433013
f 31/10/4 32/28/4 33/11/4

v -20.1173 2.55 1.15506e-14
f 34/12/4 33/11/4 32/28/4

f 33/11/4 34/12/4 23/3/4

v -15.3166 2.133 -8.31511
vt 0.04572 0.3792
f 33/11/4 23/3/4 35/29/4

v -15.088 2.133 -8.71105
vt 0 0.3792
f 35/29/4 23/3/4 36/30/4

v -15.088 2.13 -8.71105
vt 0 0.378667
f 36/30/4 23/3/4 37/31/4

v -14.858 2.13 -9.10943
vt -0.046 0.378667
f 37/31/4 23/3/4 38/32/4

v -14.608 2 -9.54244
vt -0.096 0.355556
f 38/32/4 23/3/4 39/33/4

v -10.3073 2 -16.9914
vt -0.956134 0.355556
f 39/33/4 23/3/4 40/34/4

f 40/34/4 23/3/4 24/21/4

f 38/32/4 39/33/4 27/25/4

f 26/24/4 27/25/4 39/33/4

v -15.5666 2 -7.88209
vt 0.09572 0.355556
f 33/11/4 35/29/4 41/35/4

f 41/35/4 35/29/4 30/27/4

f 30/27/4 35/29/4 29/7/4

v -10.0587 0 17.4221
vt 1.00587 -1.28393e-16
vn -0.866025 4.14536e-17 0.5
vt -1.00587 -1.28393e-16
f 42/36/5 34/3/5 32/37/5

v -10.0587 2.55 17.4221
f 34/3/5 42/36/5 43/12/5

vn 0 0 1
v -9.56134 1 17.4221
f 42/20/6 44/21/6 43/3/6

v 9.55866 1 17.4221
f 44/21/6 42/20/6 45/10/6

f 1/22/6 45/10/6 42/20/6

f 45/10/6 1/22/6 3/12/6

v 9.55866 2 17.4221
f 45/10/6 3/12/6 46/11/6

v -9.56134 2 17.4221
f 46/11/6 3/12/6 47/34/6

f 43/3/6 47/34/6 3/12/6

f 43/3/6 44/21/6 47/34/6

v -9.55866 2 -17.4221
f 21/10/3 23/12/3 48/11/3

v 9.56134 2 -17.4221
f 48/11/3 23/12/3 49/34/3

f 19/3/3 49/34/3 23/12/3

f 19/3/3 20/21/3 49/34/3

v 9.55866 1 -17.4221
f 50/2/3 20/21/3 21/10/3

g Mesh2 Model

usemtl Chris_Shoe
vt 603.015 327.366
vn -2.15747e-17 -1 1.52053e-16
v -20 0 1.15506e-14
vt 787.402 -4.54747e-13
vt 792.02 -4.54747e-13
f 28/38/7 51/39/7 32/40/7

v -15.2286 -9.74164e-19 -8.26431
vt 599.551 325.366
f 51/39/7 28/38/7 52/41/7

vt 396.01 685.91
vn 1.0697e-16 -1 -8.57073e-17
f 22/42/8 52/41/8 28/38/8

v -10 0 -17.3205
vt 393.701 681.91
f 52/41/8 22/42/8 53/43/8

vt -396.01 685.91
f 53/43/8 22/42/8 18/44/8

v 10 0 -17.3205
vt -393.701 681.91
f 53/43/8 18/44/8 54/45/8

v 20 0 -0
vt -787.402 -7.21898e-30
f 54/45/8 18/44/8 55/46/8

vt -792.02 -7.26133e-30
f 55/46/8 18/44/8 8/47/8

vt -585.015 -358.543
f 4/48/8 55/46/8 8/47/8

v 14.7714 0 9.0562
vt -581.551 -356.543
f 55/46/8 4/48/8 56/49/8

vt -396.01 -685.91
f 1/50/7 56/49/7 4/48/7

v 10 0 17.3205
vt -393.701 -681.91
f 1/50/7 57/51/7 56/49/7

v -10 0 17.3205
vt 393.701 -681.91
f 1/50/7 58/52/7 57/51/7

vt 396.01 -685.91
f 42/53/7 58/52/7 1/50/7

f 42/53/7 51/39/7 58/52/7

f 51/39/7 42/53/7 32/40/7

vt 393.701 0
vn 0.866025 0 -0.5
v -10 0.12 17.3205
vt -393.701 4.72441
vt -393.701 0
f 51/54/9 59/55/9 58/56/9

v -20 0.12 1.15506e-14
vt 393.701 4.72441
f 59/55/9 51/54/9 60/57/9

vt -18 -3.49039e-13
vn 0.866025 -5.11798e-16 0.5
vt -393.701 -3.49e-13
f 52/58/10 60/55/10 51/59/10

v -15.2286 0.12 -8.26431
vt -18 4.72441
f 60/55/10 52/58/10 61/60/10

vt 393.701 -1.74107e-12
vn 0.866025 -2.55323e-15 0.5
vt -18 -1.74111e-12
f 53/61/11 61/60/11 52/62/11

v -14.77 0.12 -9.05863
vt 18.1102 4.72441
f 61/60/11 53/61/11 62/63/11

v -10 0.12 -17.3205
f 62/63/11 53/61/11 63/57/11

v 10 0.12 -17.3205
f 53/56/6 64/57/6 63/55/6

f 64/57/6 53/56/6 54/54/6

vn -0.866025 0 0.5
f 55/54/12 64/55/12 54/56/12

v 20 0.12 -0
f 64/55/12 55/54/12 65/57/12

usemtl _1
vt -1.42857 7.48585e-15
vn -0.866025 1.70193e-15 -0.5
v 15.2286 0.12 8.26431
vt -0.0653143 0.0304733
vt -1.42857 0.0304733
f 55/64/13 66/65/13 65/66/13

v 14.7714 0.12 9.0562
vt 0.0653143 0.0304733
f 55/64/13 67/67/13 66/65/13

vt 0.0653143 7.48585e-15
f 67/67/13 55/64/13 56/68/13

vt 1.42857 -7.85198e-15
vn -0.866025 -1.78517e-15 -0.5
vt 0.0653143 -7.85198e-15
f 57/69/14 67/67/14 56/70/14

v 10 0.12 17.3205
vt 1.42857 0.0304733
f 67/67/14 57/69/14 68/71/14

usemtl Chris_Shoe
f 57/56/3 59/57/3 68/55/3

f 59/57/3 57/56/3 58/54/3

usemtl _3
vt 2 0.0426667
v -9.56134 1 17.3205
vt 1.91227 0.355556
vt -2 0.0426667
f 59/72/3 69/73/3 68/74/3

v -10 2.55 17.3205
vt 2 0.906667
f 69/73/3 59/72/3 70/75/3

vt -2 0.906667
f 60/72/9 70/76/9 59/74/9

v -20 2.55 1.15506e-14
f 70/76/9 60/72/9 71/75/9

vn 0.866025 -6.82304e-17 0.5
v -19.7793 1 -0.382213
vt -1.91173 0.355556
f 60/74/15 72/77/15 71/76/15

vt -0.09144 0.0426667
f 72/77/15 60/74/15 61/78/15

v -15.4786 1 -7.83129
vt -0.19144 0.355556
f 72/77/15 61/78/15 73/79/15

v -15.4786 2 -7.83129
vt -0.19144 0.711111
f 73/79/15 61/78/15 74/80/15

v -15.2286 2.133 -8.26431
vt -0.09144 0.7584
f 75/81/15 74/80/15 61/78/15

v -19.7793 2 -0.382213
vt -1.91173 0.711111
f 75/81/15 76/82/15 74/80/15

v -10 2.55 -17.3205
f 77/75/15 76/82/15 75/81/15

f 71/76/15 76/82/15 77/75/15

f 76/82/15 71/76/15 72/77/15

usemtl Chris_Shoe
vt 681.91 39.3701
vn 0.5 -5.21156e-31 -0.866025
vt 685.91 78.7402
vt 681.91 78.7402
f 72/83/16 33/84/16 76/85/16

vt 685.91 39.3701
f 33/84/16 72/83/16 31/86/16

vt -778.714 15.0477
vn 0 1 -0
vt -612.858 310.319
vt -782.178 17.0477
f 72/87/17 30/88/17 31/89/17

vt -609.394 308.319
f 30/88/17 72/87/17 73/90/17

vt -681.91 78.7402
vn -0.5 0 0.866025
vt -685.91 39.3701
vt -681.91 39.3701
f 74/91/18 30/92/18 73/93/18

vt -685.91 78.7402
f 30/92/18 74/91/18 41/94/18

vt 778.714 15.0477
vn 0 -1 -0
vt 612.858 310.319
vt 609.394 308.319
f 76/95/19 41/96/19 74/97/19

vt 782.178 17.0477
f 41/96/19 76/95/19 33/98/19

vt -787.402 -4.54747e-13
f 23/44/17 71/99/17 77/45/17

vt -792.02 -4.54747e-13
f 71/99/17 23/44/17 34/100/17

f 43/50/17 71/99/17 34/100/17

f 71/99/17 43/50/17 70/51/17

f 70/51/17 43/50/17 3/53/17

v 10 2.55 17.3205
f 70/51/17 3/53/17 78/52/17

v 20 2.55 -0
vt 787.402 0
f 78/52/17 3/53/17 79/101/17

vt 792.02 0
f 79/101/17 3/53/17 12/102/17

f 19/42/17 79/101/17 12/102/17

v 10 2.55 -17.3205
f 19/42/17 80/43/17 79/101/17

f 19/42/17 77/45/17 80/43/17

f 23/44/17 77/45/17 19/42/17

usemtl _3
v -9.55866 2 -17.3205
f 77/76/6 81/82/6 80/75/6

v -9.55866 1 -17.3205
f 77/76/6 82/77/6 81/82/6

f 63/74/6 82/77/6 77/76/6

v 9.56134 1 -17.3205
f 82/77/6 63/74/6 83/73/6

f 64/72/6 83/73/6 63/74/6

f 83/73/6 64/72/6 80/75/6

f 65/72/12 80/76/12 64/74/12

f 80/76/12 65/72/12 79/75/12

vn -0.866025 7.78141e-32 -0.5
v 19.7793 1 0.382213
f 65/74/20 84/77/20 79/76/20

v 15.4793 1 7.83003
vt -0.191732 0.355556
f 65/74/20 85/103/20 84/77/20

f 85/103/20 65/74/20 66/78/20

v 15.4793 2 7.83003
vt -0.191732 0.711111
f 66/78/20 86/104/20 85/103/20

v 15.2286 2.1336 8.26431
vt -0.09144 0.758613
f 87/105/20 86/104/20 66/78/20

f 87/105/20 79/76/20 86/104/20

v 14.7714 2.1336 9.0562
vt 0.09144 0.758613
f 88/106/20 79/76/20 87/105/20

v 10.2207 2 16.9383
vt 1.91173 0.711111
f 89/107/20 79/76/20 88/106/20

f 89/107/20 78/75/20 79/76/20

f 78/75/20 89/107/20 68/72/20

v 10.2207 1 16.9383
vt 1.91173 0.355556
f 90/108/20 68/72/20 89/107/20

vt 0.09144 0.0426667
f 68/72/20 90/108/20 67/109/20

v 14.5207 1 9.49048
vt 0.191732 0.355556
f 67/109/20 90/108/20 91/110/20

usemtl Chris_Shoe
vt 405.853 -668.862
vn -1.53837e-15 1 -8.88178e-16
vt 571.68 -373.641
vt 402.389 -666.862
f 2/111/21 91/112/21 90/113/21

vt 575.144 -375.641
f 91/112/21 2/111/21 5/114/21

vn -0.5 -1.25329e-15 0.866025
v 14.5207 2 9.49048
f 5/86/22 92/85/22 91/83/22

f 92/85/22 5/86/22 17/84/22

vt -405.853 -668.862
vn 3.07674e-15 -1 1.77636e-15
vt -571.68 -373.641
vt -575.144 -375.641
f 16/115/23 92/116/23 17/117/23

vt -402.389 -666.862
f 92/116/23 16/115/23 89/118/23

vn 0.5 4.49595e-19 -0.866025
f 2/92/24 89/91/24 16/94/24

f 89/91/24 2/92/24 90/93/24

usemtl _3
vt 0.191732 0.711111
f 89/107/20 88/106/20 92/119/20

f 92/119/20 88/106/20 91/110/20

f 67/109/20 91/110/20 88/106/20

usemtl Chris_Shoe
vt -681.91 84
vn 0.5 1.21914e-15 -0.866025
vt -685.91 4.72441
vt -681.91 4.72441
f 88/120/25 6/121/25 67/122/25

vt -685.91 84
f 6/121/25 88/120/25 15/123/25

vt -599.551 -325.366
f 87/124/19 15/48/19 88/49/19

vt -603.015 -327.366
f 15/48/19 87/124/19 14/125/19

vt 681.91 4.72441
vn -0.5 -6.20771e-16 0.866025
vt 685.91 84
vt 681.91 84
f 66/126/26 14/127/26 87/128/26

vt 685.91 4.72441
f 14/127/26 66/126/26 7/129/26

vt 599.551 -325.366
vn -3.82416e-14 1 -2.81326e-14
vt 585.015 -358.543
vt 603.015 -327.366
f 66/130/27 6/131/27 7/132/27

vt 581.551 -356.543
f 6/131/27 66/130/27 67/133/27

usemtl _3
v 9.55866 1 17.3205
f 68/74/3 93/77/3 78/76/3

f 93/77/3 68/74/3 69/73/3

usemtl Chris_Shoe
vt -376.431 -681.91
vt 376.325 -685.91
vt 376.325 -681.91
f 69/134/17 45/135/17 93/136/17

vt -376.431 -685.91
f 45/135/17 69/134/17 44/137/17

vn 1 0 -0
f 69/93/28 47/94/28 44/92/28

v -9.56134 2 17.3205
f 47/94/28 69/93/28 94/91/28

usemtl _3
vt 1.91227 0.711111
f 69/73/3 70/75/3 94/138/3

v 9.55866 2 17.3205
f 94/138/3 70/75/3 95/82/3

f 78/76/3 95/82/3 70/75/3

f 78/76/3 93/77/3 95/82/3

usemtl Chris_Shoe
vn -1 0 -0
f 45/86/29 95/85/29 93/83/29

f 95/85/29 45/86/29 46/84/29

vt 376.431 -685.91
vt -376.325 -681.91
vt -376.325 -685.91
f 47/139/19 95/140/19 46/141/19

vt 376.431 -681.91
f 95/140/19 47/139/19 94/142/19

usemtl _3
v 19.7793 2 0.382213
f 86/104/20 79/76/20 96/82/20

f 96/82/20 79/76/20 84/77/20

usemtl Chris_Shoe
vn -0.5 -1.06375e-18 0.866025
f 84/83/30 11/84/30 96/85/30

f 11/84/30 84/83/30 10/86/30

vt 778.714 -15.0477
vt 612.887 -310.269
vt 782.178 -17.0477
f 84/143/17 9/144/17 10/145/17

vt 609.422 -308.269
f 9/144/17 84/143/17 85/146/17

vn 0.5 -1.24948e-15 -0.866025
f 86/91/31 9/92/31 85/93/31

f 9/92/31 86/91/31 13/94/31

vt -778.714 -15.0477
vt -612.887 -310.269
vt -609.422 -308.269
f 96/147/23 13/148/23 86/149/23

vt -782.178 -17.0477
f 13/148/23 96/147/23 11/150/23

usemtl _3
v 9.56134 2 -17.3205
f 83/73/6 80/75/6 97/138/6

f 97/138/6 80/75/6 81/82/6

usemtl Chris_Shoe
vt 376.325 681.91
vt -376.431 685.91
vt -376.431 681.91
f 81/151/19 49/152/19 97/153/19

vt 376.325 685.91
f 49/152/19 81/151/19 48/154/19

f 81/85/28 21/86/28 48/84/28

f 21/86/28 81/85/28 82/83/28

v 9.55866 1 -17.3205
vn -9.44054e-18 1 -0
vt -376.325 685.91
vt -376.325 681.91
f 98/151/32 21/155/32 82/156/32

f 21/155/32 98/151/32 50/154/32

vt 376.431 681.91
vn 6.72816e-14 1 -0
f 83/157/33 50/154/33 98/151/33

vt 376.431 685.91
f 50/154/33 83/157/33 20/158/33

f 83/93/29 49/94/29 20/92/29

f 49/94/29 83/93/29 97/91/29

usemtl _3
f 98/108/6 82/77/6 83/73/6

v -10.2193 1 -16.9406
f 77/75/15 99/73/15 63/72/15

v -10.2193 2 -16.9406
f 77/75/15 100/138/15 99/73/15

v -14.52 2 -9.49164
vt 0.192 0.711111
f 77/75/15 101/159/15 100/138/15

v -14.77 2.13 -9.05863
vt 0.092 0.757333
f 77/75/15 102/160/15 101/159/15

v -15 2.133 -8.66025
vt 2.88765e-16 0.7584
f 77/75/15 103/161/15 102/160/15

f 77/75/15 75/81/15 103/161/15

usemtl Chris_Shoe
vt 594.015 342.955
vt 590.551 340.955
f 75/41/19 36/162/19 103/163/19

f 36/162/19 75/41/19 35/38/19

vn 0.5 -1.2424e-15 -0.866025
vt 685.91 83.9764
vt 681.91 83.9764
f 61/126/34 35/164/34 75/165/34

f 35/164/34 61/126/34 29/129/34

vt -599.551 325.366
vn -4.30794e-14 1 -1.8865e-14
vt -584.96 358.639
vt -603.015 327.366
f 61/166/35 27/167/35 29/168/35

vt -581.496 356.639
f 27/167/35 61/166/35 62/169/35

vt -681.91 83.8583
f 102/170/18 27/121/18 62/122/18

vt -685.91 83.8583
f 27/121/18 102/170/18 38/171/18

v -15 2.13 -8.66025
vt 584.96 358.639
vt 581.496 356.639
f 104/163/19 38/172/19 102/173/19

f 38/172/19 104/163/19 37/162/19

vt -681.91 83.9764
f 103/174/18 37/171/18 104/170/18

vt -685.91 83.9764
f 37/171/18 103/174/18 36/175/18

usemtl _3
vt 2.88765e-16 0.757333
f 102/160/15 103/161/15 104/176/15

vt 0.092 0.0426667
v -14.52 1 -9.49164
vt 0.192 0.355556
f 62/177/15 105/178/15 102/160/15

f 105/178/15 62/177/15 63/72/15

v -10.2207 1 -16.9383
f 105/178/15 63/72/15 106/108/15

f 106/108/15 63/72/15 99/73/15

usemtl Chris_Shoe
vt -405.8 668.953
vn -7.69185e-15 1 -4.44089e-15
vt -402.389 666.862
vt -402.336 666.953
f 24/179/36 106/180/36 99/181/36

vt -405.853 668.862
f 106/180/36 24/179/36 25/182/36

vn -7.70235e-15 1 -4.42272e-15
vt -571.654 373.687
f 25/182/37 105/183/37 106/180/37

vt -575.118 375.687
f 105/183/37 25/182/37 26/184/37

vn 0.5 1.34878e-18 -0.866025
f 39/84/38 105/83/38 26/86/38

f 105/83/38 39/84/38 101/85/38

vt 405.8 668.953
vn 6.15348e-15 -1 3.55271e-15
vt 571.654 373.687
vt 575.118 375.687
f 40/185/39 101/186/39 39/187/39

vt 402.336 666.953
f 101/186/39 40/185/39 100/188/39

vn -0.5 -6.44523e-15 0.866025
f 40/94/40 99/93/40 100/91/40

f 99/93/40 40/94/40 24/92/40

usemtl _3
f 101/159/15 102/160/15 105/178/15

