{
  "accessors": {
    "accessor_index_0": {
      "bufferView": "bufferView_1",
      "byteOffset": 0,
      "byteStride": 0,
      "componentType": 5123,
      "count": 3774,
      "type": "SCALAR",
      "min": [
        0
      ],
      "max": [
        1252
      ]
    },
    "accessor_index_1": {
      "bufferView": "bufferView_1",
      "byteOffset": 7548,
      "byteStride": 0,
      "componentType": 5123,
      "count": 1074,
      "type": "SCALAR",
      "min": [
        396
      ],
      "max": [
        757
      ]
    },
    "accessor_index_2": {
      "bufferView": "bufferView_1",
      "byteOffset": 9696,
      "byteStride": 0,
      "componentType": 5123,
      "count": 13005,
      "type": "SCALAR",
      "min": [
        1253
      ],
      "max": [
        3833
      ]
    },
    "accessor_index_3": {
      "bufferView": "bufferView_1",
      "byteOffset": 35706,
      "byteStride": 0,
      "componentType": 5123,
      "count": 645,
      "type": "SCALAR",
      "min": [
        3834
      ],
      "max": [
        4048
      ]
    },
    "accessor_position": {
      "bufferView": "bufferView_0",
      "byteOffset": 0,
      "byteStride": 0,
      "componentType": 5123,
      "count": 3704,
      "min": [
        0,
        0,
        0
      ],
      "max": [
        65535,
        65535,
        65535
      ],
      "type": "VEC3",
      "extensions": {
        "WEB3D_quantized_attributes": {
          "decodedMin": [
            -0.22859999537467957,
            -0.5333999991416931,
            -0.2285889983177185
          ],
          "decodedMax": [
            0.22855600714683533,
            0.05079999938607216,
            0.2285889983177185
          ],
          "decodeMatrix": [
            0.000006975753452682001,
            0,
            0,
            0,
            0,
            0.000008914320569585188,
            0,
            0,
            0,
            0,
            0.000006976089061347937,
            0,
            -0.22859999537467957,
            -0.5333999991416931,
            -0.2285889983177185,
            1
          ]
        }
      }
    },
    "accessor_normal": {
      "bufferView": "bufferView_0",
      "byteOffset": 22224,
      "byteStride": 0,
      "componentType": 5121,
      "count": 3704,
      "type": "VEC2",
      "min": [
        0,
        0
      ],
      "max": [
        255,
        255
      ]
    }
  },
  "asset": {
    "generator": "OBJ2GLTF",
    "premultipliedAlpha": true,
    "profile": {
      "api": "WebGL",
      "version": "1.0"
    },
    "version": "1.0"
  },
  "buffers": {
    "buffer_0": {
      "type": "arraybuffer",
      "byteLength": 66628,
      "uri": "data:application/octet-stream;base64,"
    }
  },
  "bufferViews": {
    "bufferView_0": {
      "buffer": "buffer_0",
      "byteLength": 29632,
      "byteOffset": 0,
      "target": 34962
    },
    "bufferView_1": {
      "buffer": "buffer_0",
      "byteLength": 36996,
      "byteOffset": 29632,
      "target": 34963
    }
  },
  "images": {},
  "materials": {
    "material_244,244,244": {
      "name": "244,244,244",
      "extensions": {},
      "values": {
        "ambient": [
          0.956863,
          0.956863,
          0.956863,
          1
        ],
        "diffuse": [
          0.956863,
          0.956863,
          0.956863,
          1
        ],
        "emission": [
          0,
          0,
          0,
          1
        ],
        "specular": [
          0.956863,
          0.956863,
          0.956863,
          1
        ],
        "shininess": 1000,
        "transparency": 1
      },
      "technique": "technique0"
    },
    "material_154,26,0": {
      "name": "154,26,0",
      "extensions": {},
      "values": {
        "ambient": [
          0,
          0,
          0,
          1
        ],
        "diffuse": [
          0.603922,
          0.101961,
          0,
          1
        ],
        "emission": [
          0,
          0,
          0,
          1
        ],
        "specular": [
          0,
          0,
          0,
          1
        ],
        "shininess": 0,
        "transparency": 1
      },
      "technique": "technique0"
    },
    "material_196,194,204": {
      "name": "196,194,204",
      "extensions": {},
      "values": {
        "ambient": [
          0.768627,
          0.760784,
          0.8,
          1
        ],
        "diffuse": [
          0.768627,
          0.760784,
          0.8,
          1
        ],
        "emission": [
          0,
          0,
          0,
          1
        ],
        "specular": [
          0.768627,
          0.760784,
          0.8,
          1
        ],
        "shininess": 1000,
        "transparency": 1
      },
      "technique": "technique0"
    },
    "material_204,0,0": {
      "name": "204,0,0",
      "extensions": {},
      "values": {
        "ambient": [
          0.8,
          0,
          0,
          1
        ],
        "diffuse": [
          0.8,
          0,
          0,
          1
        ],
        "emission": [
          0,
          0,
          0,
          1
        ],
        "specular": [
          1,
          1,
          1,
          1
        ],
        "shininess": 1000,
        "transparency": 1
      },
      "technique": "technique0"
    }
  },
  "meshes": {
    "mesh_Stool": {
      "name": "Stool",
      "primitives": [
        {
          "attributes": {
            "POSITION": "accessor_position",
            "NORMAL": "accessor_normal"
          },
          "indices": "accessor_index_0",
          "material": "material_244,244,244",
          "mode": 4
        },
        {
          "attributes": {
            "POSITION": "accessor_position",
            "NORMAL": "accessor_normal"
          },
          "indices": "accessor_index_1",
          "material": "material_196,194,204",
          "mode": 4
        },
        {
          "attributes": {
            "POSITION": "accessor_position",
            "NORMAL": "accessor_normal"
          },
          "indices": "accessor_index_2",
          "material": "material_204,0,0",
          "mode": 4
        },
        {
          "attributes": {
            "POSITION": "accessor_position",
            "NORMAL": "accessor_normal"
          },
          "indices": "accessor_index_3",
          "material": "material_154,26,0",
          "mode": 4
        }
      ]
    }
  },
  "nodes": {
    "rootNode": {
      "children": [],
      "meshes": [
        "mesh_Stool"
      ],
      "matrix": [
        1,
        0,
        0,
        0,
        0,
        1,
        0,
        0,
        0,
        0,
        1,
        0,
        0,
        0,
        0,
        1
      ]
    }
  },
  "samplers": {},
  "scene": "scene_Stool",
  "scenes": {
    "scene_Stool": {
      "nodes": [
        "rootNode"
      ]
    }
  },
  "textures": {},
  "extensionsUsed": [
    "WEB3D_quantized_attributes"
  ],
  "animations": {},
  "cameras": {},
  "techniques": {
    "technique0": {
      "attributes": {
        "a_position": "position",
        "a_normal": "normal"
      },
      "parameters": {
        "modelViewMatrix": {
          "semantic": "MODELVIEW",
          "type": 35676
        },
        "projectionMatrix": {
          "semantic": "PROJECTION",
          "type": 35676
        },
        "normalMatrix": {
          "semantic": "MODELVIEWINVERSETRANSPOSE",
          "type": 35675
        },
        "ambient": {
          "type": 35666
        },
        "diffuse": {
          "type": 35666
        },
        "emission": {
          "type": 35666
        },
        "specular": {
          "type": 35666
        },
        "shininess": {
          "type": 5126
        },
        "transparency": {
          "type": 5126
        },
        "position": {
          "semantic": "POSITION",
          "type": 35665
        },
        "normal": {
          "semantic": "NORMAL",
          "type": 35667
        }
      },
      "program": "program0",
      "states": {
        "enable": [
          2884,
          2929
        ]
      },
      "uniforms": {
        "u_modelViewMatrix": "modelViewMatrix",
        "u_projectionMatrix": "projectionMatrix",
        "u_normalMatrix": "normalMatrix",
        "u_ambient": "ambient",
        "u_diffuse": "diffuse",
        "u_emission": "emission",
        "u_specular": "specular",
        "u_shininess": "shininess",
        "u_transparency": "transparency"
      }
    }
  },
  "programs": {
    "program0": {
      "attributes": [
        "a_position",
        "a_normal"
      ],
      "fragmentShader": "fragmentShader0",
      "vertexShader": "vertexShader0"
    }
  },
  "shaders": {
    "vertexShader0": {
      "type": 35633,
      "uri": "data:text/plain;base64,"
    },
    "fragmentShader0": {
      "type": 35632,
      "uri": "data:text/plain;base64,"
    }
  },
  "skins": {},
  "extensions": {}
}
