mtllib D:/VR App Dev/_GitHub_AltSpace/models/Wavefront.mtl
s 1
o 
g 
usemtl *1
v 0.9 0 0.71
v 0 0.9 0.71
v 0 0 0.71
vn 0 0 1
vt 0.989011 0
vt 0 1.75824
vt 0 0
f 1/1/1 2/2/1 3/3/1 
v 0.9 0.9 0.71
vt 0 1.75824
vt 0.989011 0
vt 0.989011 1.75824
f 2/4/1 1/5/1 4/6/1 
usemtl Carrera_Marble
v 0.9 0.9 0
v 0.9 0 0
vn 1 0 0
vt 0.984252 0
vt 0 0.776465
vt 0 0
f 5/7/2 1/8/2 6/9/2 
vt 0 0.776465
vt 0.984252 0
vt 0.984252 0.776465
f 1/10/2 5/11/2 4/12/2 
usemtl Granite_Brown
v 0 0 0
vn 0 -1 0
vt 1.47638 1.1647
vt 0 0
vt 1.47638 0
f 1/13/3 7/14/3 6/15/3 
vt 0 0
vt 1.47638 1.1647
vt 0 1.1647
f 7/16/3 1/17/3 3/18/3 
usemtl Layer_Layer0
v 0 0.9 0
vn 0 0 -1
f 5//4 7//4 8//4 
f 7//4 5//4 6//4 
vn -1 0 0
f 2//5 7//5 3//5 
f 7//5 2//5 8//5 
vn 0 1 0
f 2//6 5//6 8//6 
f 5//6 2//6 4//6 
